<?xml version="1.0" encoding="utf-8"?>
<!-- Generator: Adobe Illustrator 22.0.1, SVG Export Plug-In . SVG Version: 6.00 Build 0)  -->
<svg version="1.1" id="Capa_1" xmlns="http://www.w3.org/2000/svg" xmlns:xlink="http://www.w3.org/1999/xlink" x="0px" y="0px"
	 viewBox="0 0 143.5 142.6" style="enable-background:new 0 0 143.5 142.6;" xml:space="preserve">
<style type="text/css">
	.st0{fill:#AAAAAA;}
</style>
<g id="_x23_ffffffff">
</g>
<g id="_x23_000000ff">
	<path class="st0" d="M29.1,13.8c20.5-15.4,49.4-18,72.5-7.2c18.8,8.5,33.5,25.8,38.9,45.8c4.3,15.9,3.1,33.5-3.7,48.5
		c-7.3,16.5-21.2,30-38,36.8c-11.6,5-24.5,6-36.9,4.7c-18.9-2.5-36.8-12.9-48-28.4c3.8-3,7.7-6.1,11.9-8.7c4.3,5,8.9,9.9,14.5,13.5
		c14,9.3,32.1,11.9,48.1,6.8c15.8-4.9,29.2-17.1,35.4-32.6c5.9-14.1,5.6-30.4-0.6-44.3c-6.4-14.7-19.4-26.3-34.7-31
		c-16.9-5.6-36.2-2.1-50.6,8.1C34.8,21.9,32,17.8,29.1,13.8z"/>
</g>
</svg>
