<?xml version="1.0" encoding="utf-8"?>
<!-- Generator: Adobe Illustrator 22.0.1, SVG Export Plug-In . SVG Version: 6.00 Build 0)  -->
<svg version="1.1" id="Capa_1" xmlns="http://www.w3.org/2000/svg" xmlns:xlink="http://www.w3.org/1999/xlink" x="0px" y="0px"
	 viewBox="0 0 720 752.8" style="enable-background:new 0 0 720 752.8;" xml:space="preserve">
<g>
	<path fill="#eee" d="M182.4,372.6c14,0,27.2,0,41,0c0-11.2,0-21.9,0-33.3c18.2,0,35.9,0,54.1,0c0-12.3,0-23.8,0-36c16.6,0,32.5,0,48.9,0
		c0-10.5,0-20.3,0-31.2c9.1,0,17.8,0,26.5,0c11.3,0,12.2-0.9,12.2-12.2c0-68.6,0-137.2,0-205.9c0-2.5,0-5,0-8.4c8.9,0,17.2,0,25.5,0
		c9-0.1,10.5-1.5,10.5-10.7c0-7.2,0-14.5,0-22.1c91,0,181.4,0,272.5,0c0,10.5,0,21.1,0,32.6c12.3,0,23.9,0,36,0
		c0,50.9,0,101,0,151.9c-56.8,0-113.9,0-171.5,0c0,12.4,0,24,0,36.3c35.3,0,70.5,0,106.1,0c0,10,0,19.3,0,29.2
		c-46.9,0-93.6,0-140.7,0c0,23,0,45.3,0,68.5c23.1,0,46.3,0,70,0c0,24.2,0,47.7,0,71.6c-11.8,0-23.4,0-35.6,0c0-10.9,0-21.5,0-32.6
		c-13.7,0-26.9,0-40.9,0c0,38.1,0,76.4,0,115.6c-8.6,0-16.5,0-24.3,0c-11,0-12.1,1-12.1,11.8c0,12.9,0,25.7,0,39.7
		c-8.2,0-16,0-23.8,0c-11.2-0.1-12.2,0.9-12.2,12.3c0,7.7,0,15.3,0,23.7c-7.5,0-14.3-0.1-21.1,0c-8,0.1-9.7,1.7-9.7,9.6
		c-0.1,39.9-0.1,79.8,0,119.7c0,7.9,1.7,9.4,9.8,9.5c7.7,0.1,15.3,0,23.3,0c0,9.6,0,18.5,0,27.9c-21.3,0-42.4,0-64.1,0
		c0-33.2,0-66.1,0-99.7c-12.1,0-23.5,0-35.8,0c0-11.8,0-23.1,0-34.6c-14.9,0-29,0-43.8,0c0,11.2,0,22.4,0,34.2
		c-10.5,0-20.3,0-30.8,0c0,12.6,0,24.7,0,37.3c-11.8,0-22.9,0-34.5,0c0,10.8,0,21.2,0,32.4c11,0,22.3,0,33.8,0c0,10.6,0,20.3,0,30.5
		c-22.8,0-45.4,0-68.7,0c0-45.1,0-90.2,0-136c-9.8,0-18.9,0-28.4,0c0-11.3,0-22,0-33.3c-12.1,0-23.8,0-35.9,0c0-12.2,0-23.7,0-36
		c-12.1,0-23.8,0-36,0c0-11.4,0-22,0-33.4c-11.3,0-22.1,0-33.5,0c0-12.2,0-23.7,0-36c-13.1,0-25.6,0-38.6,0c0-65.5,0-130.1,0-195.4
		c9.9,0,19.8,0,30.3,0c0,22.7,0,45.3,0,68.8c10.5,0,20.5,0,31.2,0c0,6.9,0,13.1,0,19.2c0,14.3,0,14.4,14.6,14.4c6.8,0,13.6,0,21.4,0
		c0,8,0,15.4,0,22.8c0.1,9.1,1.6,10.6,10.6,10.6c21,0,42,0,63.8,0C182.4,394.8,182.4,384,182.4,372.6z M472.8,98.3
		c0-12.7,0-25.3,0-38c-15.7,0-31.2,0-46.6,0c0,12.9,0,25.4,0,38C441.9,98.3,457.1,98.3,472.8,98.3z"/>
</g>
</svg>
