<?xml version="1.0" encoding="utf-8"?>
<!-- Generator: Adobe Illustrator 22.0.1, SVG Export Plug-In . SVG Version: 6.00 Build 0)  -->
<svg version="1.1" id="Capa_1" xmlns="http://www.w3.org/2000/svg" xmlns:xlink="http://www.w3.org/1999/xlink" x="0px" y="0px"
	 viewBox="0 0 100 100" style="enable-background:new 0 0 100 100;" xml:space="preserve">
<style type="text/css">
	.st0{fill:#03589B;}
</style>
<g>
	<path class="st0" d="M0,51.8c0-1.3,0-2.5,0-3.8c0.3-2.8,0.5-5.6,1.1-8.3c4.3-20.2,20.2-35.6,40.7-39c15.1-2.5,28.7,1.3,40.4,11.2
		c9.6,8,15.3,18.4,17.1,30.7c2.1,14.6-1.6,27.8-11.1,39.2c-8,9.7-18.4,15.5-30.8,17.4c-1.9,0.3-3.8,0.4-5.6,0.6c-1.1,0-3,0-4.1-0.1
		c-2.3-0.3-4.7-0.4-7-0.9C21.3,95.4,5.4,80,1.2,60.6C0.6,57.7,0.4,54.8,0,51.8z M5.4,49.7c0,24.7,19.9,44.7,44.6,44.8
		c24.8,0,44.7-19.8,44.8-44.5C94.8,25.1,74.9,5.1,50.1,5.1C25.3,5,5.4,24.9,5.4,49.7z"/>
	<path class="st0" d="M40.1,73.9c-0.5-0.4-0.5-0.9-0.6-1.3C34.9,59,30.4,45.4,25.8,31.8c-0.6-1.8-0.6-1.8,1.3-2.1
		c0.9-0.1,1.8-0.1,2.8-0.3c0.9-0.1,1.4-0.8,1.3-1.7c-0.1-0.9-0.7-1.3-1.6-1.2c-3.2,0.1-6.3,0.3-9.5,0.4c-0.3,0-0.5,0.1-0.8,0.1
		c-0.6,0-1.3,0.3-1.6-0.4c-0.2-0.5,0.4-0.9,0.7-1.3c7.2-9,16.4-14.2,27.9-15.3c11.2-1.1,21.1,2.2,29.7,9.5c0.2,0.2,0.5,0.3,0.5,0.8
		c-0.6,0.1-1.2,0.2-1.9,0.4c-4.2,1-6.6,4.9-5.5,9.1c0.5,2,1.6,3.7,2.6,5.5c0.7,1.2,1.4,2.4,2.1,3.5c2.9,4.5,3.6,9.3,2.3,14.4
		c-1.3,5-3.2,9.8-4.6,14.8c-0.5,1.9-1.1,3.8-1.7,5.7c-0.7-0.2-0.7-0.8-0.8-1.2c-4.5-13.5-9.1-27.1-13.6-40.6
		C55.1,30,55.1,30,57,29.8c0.9-0.1,1.8-0.2,2.6-0.3c0.9-0.1,1.5-0.7,1.4-1.7c-0.1-1-0.7-1.4-1.6-1.3c-1.7,0.1-3.4,0.1-5.1,0.3
		c-4.9,0.4-9.8,0.1-14.6-0.3c-0.4,0-0.9,0-1.3,0c-0.9,0.1-1.4,0.5-1.5,1.4c-0.1,0.9,0.4,1.4,1.3,1.6c1,0.2,2.1,0.3,3.2,0.3
		c0.8,0,1.3,0.4,1.5,1.2c1.9,5.4,3.9,10.9,5.9,16.3c0.2,0.6,0.2,1.1,0,1.7C46,57,43.3,65.1,40.6,73.2C40.5,73.4,40.5,73.7,40.1,73.9
		z"/>
	<path class="st0" d="M50.7,53.5c0.5,0.2,0.5,0.7,0.7,1.1c3.9,10.6,7.7,21.2,11.6,31.7c0.3,0.9,0,1.2-0.8,1.5
		c-7.4,2.3-14.9,2.5-22.4,0.5c-0.9-0.2-1.1-0.6-0.8-1.5c3.7-10.8,7.5-21.6,11.2-32.5C50.3,54.1,50.4,53.7,50.7,53.5z"/>
	<path class="st0" d="M13.6,33.8c0.5,0.3,0.5,0.8,0.7,1.2c6,16.3,11.9,32.7,17.9,49.1c0.1,0.4,0.5,0.9,0.2,1.2
		c-0.4,0.4-0.8-0.1-1.2-0.3c-11.1-6.2-18-15.5-20.5-27.9C9.2,49.5,10.1,42,13,34.8C13.1,34.4,13.2,34,13.6,33.8z"/>
	<path class="st0" d="M85.3,30.9c4.8,9.4,6.1,19.1,3.3,29.2c-2.8,10.4-9,18.4-18.2,24c-0.4-0.7-0.1-1.1,0.1-1.5
		c4.1-11.8,8.2-23.6,12.3-35.3c1.8-5.1,2.9-10.3,2.2-15.7c0-0.1,0-0.3,0-0.4C85,31.2,85.1,31.1,85.3,30.9z"/>
</g>
</svg>
